<?xml version="1.0" encoding="utf-8"?>
<!-- Generator: Adobe Illustrator 19.2.1, SVG Export Plug-In . SVG Version: 6.00 Build 0)  -->
<!DOCTYPE svg PUBLIC "-//W3C//DTD SVG 1.1//EN" "http://www.w3.org/Graphics/SVG/1.1/DTD/svg11.dtd">
<svg version="1.1" id="Layer_1" xmlns="http://www.w3.org/2000/svg" xmlns:xlink="http://www.w3.org/1999/xlink" x="0px" y="0px"
	 viewBox="0 0 1500 510" style="enable-background:new 0 0 1500 510;" xml:space="preserve">
<style type="text/css">
	.st0{fill:#F5F5F5;}
</style>
<g>
	<path class="st0" d="M0,0v510h1500V0H0z M975.5,314.3c-9.6,9.6-21,16.4-33.1,20.3c5.8,11.4,9,24.2,9,37.8
		c0,46.2-37.7,83.9-83.9,83.9c-13.6,0-26.4-3.3-37.8-9c-4,12.1-10.7,23.5-20.3,33.1c-32.7,32.7-86,32.7-118.7,0
		c-9.6-9.6-16.4-21-20.3-33.1c-11.4,5.8-24.2,9-37.8,9c-46.2,0-83.9-37.7-83.9-83.9c0-13.6,3.2-26.4,9-37.8
		c-12.1-4-23.5-10.7-33.1-20.3c-32.7-32.7-32.7-86,0-118.7c9.6-9.6,21-16.4,33.1-20.3c-5.8-11.4-9-24.2-9-37.8
		c0-46.2,37.7-83.9,83.9-83.9c13.6,0,26.4,3.3,37.8,9c4-12.1,10.7-23.5,20.3-33.1c32.7-32.7,86-32.7,118.7,0
		c9.6,9.6,16.4,21,20.3,33.1c11.4-5.8,24.2-9,37.8-9c46.2,0,83.9,37.7,83.9,83.9c0,13.6-3.3,26.4-9,37.8c12.1,4,23.5,10.7,33.1,20.3
		C1008.2,228.4,1008.2,281.6,975.5,314.3z"/>
	<path class="st0" d="M880.5,219.4l-97.3,97.3L759.5,293l97.3-97.3c13.3-13.3,30-21.2,47.3-23.7c8.5-9,13.7-21.1,13.7-34.5
		c0-27.8-22.6-50.3-50.3-50.3c-13.3,0-25.5,5.2-34.5,13.7c-2.5,17.3-10.4,34-23.7,47.3l-26.1,26.1l-23.7-23.7l26.1-26.1
		c19.6-19.6,19.6-51.6,0-71.2c-19.6-19.6-51.6-19.6-71.2,0s-19.6,51.6,0,71.2l97.3,97.3L788,245.5l-97.3-97.3
		c-13.3-13.3-21.2-30-23.7-47.3c-9-8.5-21.1-13.7-34.5-13.7c-27.8,0-50.3,22.6-50.3,50.3c0,13.3,5.2,25.5,13.7,34.5
		c17.3,2.5,34,10.4,47.3,23.7l26.1,26.1l-23.7,23.7l-26.1-26.1c-19.6-19.6-51.6-19.6-71.2,0c-19.6,19.6-19.6,51.6,0,71.2
		c19.6,19.6,51.6,19.6,71.2,0l97.3-97.3l23.7,23.7l-97.3,97.3c-13.3,13.3-30,21.2-47.3,23.7c-8.5,9-13.7,21.1-13.7,34.5
		c0,27.8,22.6,50.3,50.3,50.3c13.3,0,25.5-5.2,34.5-13.7c2.5-17.3,10.4-34,23.7-47.3l26.1-26.1l23.7,23.7l-26.1,26.1
		c-19.6,19.6-19.6,51.6,0,71.2c19.6,19.6,51.6,19.6,71.2,0s19.6-51.6,0-71.2l-97.3-97.3l23.7-23.7l97.3,97.3
		c13.3,13.3,21.2,30,23.7,47.3c9,8.5,21.1,13.7,34.5,13.7c27.8,0,50.3-22.6,50.3-50.3c0-13.3-5.2-25.5-13.7-34.5
		c-17.3-2.5-34-10.4-47.3-23.7l-26.1-26.1l23.7-23.7l26.1,26.1c19.6,19.6,51.6,19.6,71.2,0c19.6-19.6,19.6-51.6,0-71.2
		C932.1,199.8,900.2,199.8,880.5,219.4z M842.3,137.5c0-13.9,11.3-25.2,25.2-25.2c13.9,0,25.2,11.3,25.2,25.2
		c0,13.9-11.3,25.2-25.2,25.2h-25.2V137.5z M732.2,106.7c-9.8-9.8-9.8-25.8,0-35.6c9.8-9.8,25.8-9.8,35.6,0c9.8,9.8,9.8,25.8,0,35.6
		L750,124.5L732.2,106.7z M657.7,162.7h-25.2c-13.9,0-25.2-11.3-25.2-25.2c0-13.9,11.3-25.2,25.2-25.2c13.9,0,25.2,11.3,25.2,25.2
		V162.7z M601.7,272.8c-9.8,9.8-25.8,9.8-35.6,0c-9.8-9.8-9.8-25.8,0-35.6c9.8-9.8,25.8-9.8,35.6,0l17.8,17.8L601.7,272.8z
		 M657.7,372.5c0,13.9-11.3,25.2-25.2,25.2c-13.9,0-25.2-11.3-25.2-25.2c0-13.9,11.3-25.2,25.2-25.2h25.2V372.5z M767.8,403.3
		c9.8,9.8,9.8,25.8,0,35.6c-9.8,9.8-25.8,9.8-35.6,0c-9.8-9.8-9.8-25.8,0-35.6l17.8-17.8L767.8,403.3z M842.3,347.3h25.2
		c13.9,0,25.2,11.3,25.2,25.2c0,13.9-11.3,25.2-25.2,25.2c-13.9,0-25.2-11.3-25.2-25.2V347.3z M933.9,272.8
		c-9.8,9.8-25.8,9.8-35.6,0L880.5,255l17.8-17.8c9.8-9.8,25.8-9.8,35.6,0C943.8,247,943.8,263,933.9,272.8z"/>
</g>
</svg>
